<?xml version="1.0" encoding="UTF-8" standalone="no"?>
<!-- Created with Inkscape (http://www.inkscape.org/) -->

<svg
   width="14.998275mm"
   height="2.464mm"
   viewBox="0 0 14.998275 2.464"
   version="1.1"
   id="svg5"
   sodipodi:docname="branding-15mm_wide.svg"
   inkscape:version="1.1 (c4e8f9e, 2021-05-24)"
   xmlns:inkscape="http://www.inkscape.org/namespaces/inkscape"
   xmlns:sodipodi="http://sodipodi.sourceforge.net/DTD/sodipodi-0.dtd"
   xmlns="http://www.w3.org/2000/svg"
   xmlns:svg="http://www.w3.org/2000/svg">
  <sodipodi:namedview
     id="namedview7"
     pagecolor="#ffffff"
     bordercolor="#666666"
     borderopacity="1.0"
     inkscape:pageshadow="2"
     inkscape:pageopacity="0.0"
     inkscape:pagecheckerboard="0"
     inkscape:document-units="mm"
     showgrid="false"
     inkscape:zoom="7.5893747"
     inkscape:cx="28.790251"
     inkscape:cy="27.999672"
     inkscape:window-width="1920"
     inkscape:window-height="1027"
     inkscape:window-x="0"
     inkscape:window-y="25"
     inkscape:window-maximized="1"
     inkscape:current-layer="g834"
     fit-margin-top="0"
     fit-margin-left="0"
     fit-margin-right="0"
     fit-margin-bottom="0" />
  <defs
     id="defs2" />
  <g
     inkscape:label="[fixed] BG"
     inkscape:groupmode="layer"
     sodipodi:insensitive="true"
     id="g832">
    <rect
       x="0"
       y="0"
       width="15"
       height="15"
       style="fill:#ffffff;fill-opacity:1;stroke:none"
       id="rect830" />
  </g>
  <g
     inkscape:label="F.SilkS"
     inkscape:groupmode="layer"
     id="g834">
    <g
       id="g995"
       transform="matrix(0.53565217,0,0,0.53565217,-48.805162,-78.312348)">
      <path
         id="path349"
         style="font-style:normal;font-weight:normal;font-size:0.527067px;line-height:0%;font-family:sans-serif;letter-spacing:-0.53716px;word-spacing:0px;display:inline;fill:#000000;fill-opacity:1;stroke:none;stroke-width:0.0439223px;stroke-linecap:butt;stroke-linejoin:miter;stroke-opacity:1"
         d="m 95.429791,148.49847 q 0,1.12784 -0.549397,1.71469 -0.549397,0.58684 -1.608731,0.58684 -1.044158,0 -1.602661,-0.5899 -0.555468,-0.5899 -0.555468,-1.71774 0,-1.11562 0.552433,-1.70246 0.555467,-0.5899 1.611766,-0.5899 1.059335,0 1.605696,0.58378 0.546362,0.58379 0.546362,1.71469 z m -3.053554,0 q 0,1.29595 0.895426,1.29595 0.455301,0 0.673846,-0.31482 0.22158,-0.31482 0.22158,-0.98113 0,-0.66937 -0.224616,-0.98724 -0.22158,-0.32093 -0.66474,-0.32093 -0.901496,0 -0.901496,1.30817 z" />
      <path
         id="path351"
         style="font-style:normal;font-weight:normal;font-size:0.527067px;line-height:0%;font-family:sans-serif;letter-spacing:-0.494182px;word-spacing:0px;display:inline;fill:#000000;fill-opacity:1;stroke:none;stroke-width:0.0439223px;stroke-linecap:butt;stroke-linejoin:miter;stroke-opacity:1"
         d="m 98.597609,149.38179 q 0,0.41568 -0.209438,0.73967 -0.209439,0.32093 -0.604034,0.50126 -0.394594,0.17728 -0.925779,0.17728 -0.44316,0 -0.743659,-0.0611 -0.300499,-0.0642 -0.62528,-0.22007 v -1.07588 q 0.342993,0.17728 0.713305,0.27814 0.370312,0.0978 0.679917,0.0978 0.26711,0 0.391559,-0.0917 0.124449,-0.0948 0.124449,-0.24147 0,-0.0917 -0.0516,-0.15893 -0.04856,-0.0703 -0.160873,-0.1406 -0.109272,-0.0703 -0.588856,-0.28731 -0.434054,-0.19867 -0.652599,-0.38512 -0.215509,-0.18644 -0.321746,-0.42791 -0.103202,-0.24146 -0.103202,-0.57156 0,-0.61741 0.446195,-0.96279 0.446196,-0.34538 1.226279,-0.34538 0.689022,0 1.405363,0.32093 l -0.367276,0.93223 q -0.622245,-0.28731 -1.074511,-0.28731 -0.233722,0 -0.339959,0.0825 -0.106237,0.0825 -0.106237,0.20479 0,0.13142 0.133555,0.23535 0.136591,0.10392 0.734553,0.379 0.57368,0.2598 0.79526,0.55934 0.224615,0.29647 0.224615,0.74883 z" />
      <path
         id="path353"
         style="font-style:normal;font-weight:normal;font-size:0.527067px;line-height:0%;font-family:sans-serif;letter-spacing:-0.229419px;word-spacing:0px;display:inline;fill:#000000;fill-opacity:1;stroke:none;stroke-width:0.0439223px;stroke-linecap:butt;stroke-linejoin:miter;stroke-opacity:1"
         d="m 102.58834,150.73887 h -1.35376 l -0.87722,-1.70857 -0.35513,0.21395 v 1.49462 h -1.205033 v -4.46858 h 1.205033 v 1.94087 q 0.0911,-0.18033 0.36727,-0.57156 l 0.93185,-1.36931 h 1.31127 l -1.39929,2.002 z" />
      <path
         id="path355"
         style="font-style:normal;font-weight:normal;font-size:0.527067px;line-height:0%;font-family:sans-serif;letter-spacing:-0.39507px;word-spacing:0px;display:inline;fill:#000000;fill-opacity:1;stroke:none;stroke-width:0.0439223px;stroke-linecap:butt;stroke-linejoin:miter;stroke-opacity:1"
         d="m 102.84233,150.73887 v -4.46858 h 1.20503 v 4.46858 z" />
      <path
         id="path357"
         style="font-style:normal;font-weight:normal;font-size:0.527067px;line-height:0%;font-family:sans-serif;letter-spacing:-0.564189px;word-spacing:0px;display:inline;fill:#000000;fill-opacity:1;stroke:none;stroke-width:0.0439223px;stroke-linecap:butt;stroke-linejoin:miter;stroke-opacity:1"
         d="m 106.56759,150.73887 h -1.19896 v -3.48133 h -1.08362 v -0.98725 h 3.36316 v 0.98725 h -1.08058 z" />
      <path
         id="path359"
         style="font-style:normal;font-weight:normal;font-size:0.527067px;line-height:0%;font-family:sans-serif;letter-spacing:-0.634195px;word-spacing:0px;display:inline;fill:#000000;fill-opacity:1;stroke:none;stroke-width:0.0439223px;stroke-linecap:butt;stroke-linejoin:miter;stroke-opacity:1"
         d="m 111.87875,148.49847 q 0,1.12784 -0.5494,1.71469 -0.5494,0.58684 -1.60873,0.58684 -1.04416,0 -1.60266,-0.5899 -0.55547,-0.5899 -0.55547,-1.71774 0,-1.11562 0.55243,-1.70246 0.55547,-0.5899 1.61177,-0.5899 1.05933,0 1.60569,0.58378 0.54637,0.58379 0.54637,1.71469 z m -3.05356,0 q 0,1.29595 0.89543,1.29595 0.4553,0 0.67384,-0.31482 0.22158,-0.31482 0.22158,-0.98113 0,-0.66937 -0.22461,-0.98724 -0.22158,-0.32093 -0.66474,-0.32093 -0.9015,0 -0.9015,1.30817 z" />
      <path
         id="path361"
         style="font-style:normal;font-weight:normal;font-size:0.527067px;line-height:0%;font-family:sans-serif;letter-spacing:-0.756181px;word-spacing:0px;display:inline;fill:#000000;fill-opacity:1;stroke:none;stroke-width:0.0439223px;stroke-linecap:butt;stroke-linejoin:miter;stroke-opacity:1"
         d="m 116.27327,150.73887 h -1.5723 l -1.62088,-3.14818 h -0.0273 q 0.0577,0.74273 0.0577,1.13396 v 2.01422 h -1.06237 v -4.46858 h 1.56623 l 1.61481,3.10539 h 0.0182 q -0.0425,-0.67548 -0.0425,-1.08505 v -2.02034 h 1.06844 z" />
      <path
         id="path363"
         style="font-style:normal;font-variant:normal;font-weight:800;font-stretch:normal;font-size:6.23799px;line-height:1.25;font-family:'Open Sans';-inkscape-font-specification:'Open Sans Ultra-Bold';letter-spacing:-0.376357px;word-spacing:0px;display:inline;fill:#000000;fill-opacity:1;stroke:none;stroke-width:0.0439223px;stroke-linecap:butt;stroke-linejoin:miter;stroke-opacity:1"
         d="m 119.11356,150.73887 h -2.63468 v -4.46858 h 2.63468 v 0.96891 h -1.43572 v 0.70299 h 1.32948 v 0.9689 h -1.32948 v 0.84359 h 1.43572 z" />
    </g>
  </g>
</svg>
